# xmcd
#
# Track frame offsets:
#	150
#	20153
#	39138
#	56111
#	78268
#	97070
#	115802
#
# Disc length: 1919 seconds
#
# Revision: 0
# Processed by: cddbd v1.5.2PL0 Copyright (c) Steve Scherf et al.
# Submitted via: audiograbber 1.83.01
#
DISCID=53077d07
DTITLE=Tracer - L.A.?
DYEAR=2010
DGENRE=Rock
TTITLE0=End Of The Samurai
TTITLE1=Don't Forget My Name
TTITLE2=Wrecking Ball
TTITLE3=Get Free
TTITLE4=All Look The Same
TTITLE5=Such A Waste
TTITLE6=Sleep By The Fire
EXTD=
EXTT0=
EXTT1=
EXTT2=
EXTT3=
EXTT4=
EXTT5=
EXTT6=
PLAYORDER=
